<svg width="20" height="16" xmlns="http://www.w3.org/2000/svg"><path d="M6.29 16c7.547 0 11.675-6.155 11.675-11.492 0-.175-.004-.35-.012-.522A8.277 8.277 0 0 0 20 1.894a8.292 8.292 0 0 1-2.356.636A4.065 4.065 0 0 0 19.448.296a8.3 8.3 0 0 1-2.606.98A4.13 4.13 0 0 0 13.847 0c-2.266 0-4.104 1.809-4.104 4.039 0 .317.036.625.107.92A11.712 11.712 0 0 1 1.392.74a3.977 3.977 0 0 0-.556 2.03 4.02 4.02 0 0 0 1.826 3.363 4.122 4.122 0 0 1-1.858-.505l-.001.051c0 1.957 1.415 3.59 3.292 3.96a4.177 4.177 0 0 1-1.853.07c.522 1.604 2.037 2.772 3.833 2.805A8.317 8.317 0 0 1 .98 14.242c-.331 0-.658-.019-.979-.056A11.75 11.75 0 0 0 6.29 16z" fill="#FFF" fill-rule="evenodd"/></svg>