<?xml version="1.0" encoding="UTF-8"?>
<svg width="20px" height="16px" viewBox="0 0 20 16" version="1.1" xmlns="http://www.w3.org/2000/svg" xmlns:xlink="http://www.w3.org/1999/xlink">
    <!-- Generator: Sketch 52.2 (67145) - http://www.bohemiancoding.com/sketch -->
    <title>Path</title>
    <desc>Created with Sketch.</desc>
    <g id="wireframe" stroke="none" stroke-width="1" fill="none" fill-rule="evenodd">
        <g id="Desktop-HD-Copy-2" transform="translate(-985.000000, -402.000000)" fill="#00ACED">
            <g id="cta" transform="translate(728.000000, 390.000000)">
                <g id="btn-copy" transform="translate(241.000000, 0.000000)">
                    <path d="M22.28984,28 C29.83728,28 33.96472,21.8449242 33.96472,16.5077321 C33.96472,16.3328313 33.96112,16.158718 33.95296,15.9855496 C34.75408,15.4154879 35.45056,14.704151 36,13.8942208 C35.26472,14.215673 34.47352,14.4323893 33.64352,14.5300377 C34.49064,14.0301411 35.14112,13.2388743 35.44784,12.2957801 C34.65488,12.7584286 33.77704,13.0950004 32.8424,13.2761224 C32.0936,12.4910768 31.02728,12 29.84728,12 C27.58104,12 25.74328,13.808936 25.74328,16.0388625 C25.74328,16.3559047 25.77936,16.6640483 25.84976,16.9598283 C22.4396,16.7910699 19.41552,15.1837305 17.392,12.7397651 C17.03928,13.3365227 16.83624,14.0301411 16.83624,14.7698274 C16.83624,16.171239 17.56072,17.4083021 18.66224,18.1320025 C17.9892,18.1116066 17.3568,17.9295396 16.80384,17.6266722 C16.80288,17.6435244 16.80288,17.6604554 16.80288,17.6781738 C16.80288,19.6346061 18.21752,21.2676963 20.09488,21.6380514 C19.75024,21.7303448 19.3876,21.780114 19.0132,21.780114 C18.74888,21.780114 18.49176,21.7543632 18.24184,21.7072715 C18.76416,23.3120121 20.27896,24.4797764 22.07512,24.5126933 C20.67048,25.5960389 18.90136,26.2416994 16.9788,26.2416994 C16.64776,26.2416994 16.32112,26.223036 16,26.1857091 C17.816,27.3312662 19.97216,28 22.28984,28 Z" id="Path"></path>
                </g>
            </g>
        </g>
    </g>
</svg>