<svg width="98" height="80" xmlns="http://www.w3.org/2000/svg"><g fill="#272638" fill-rule="nonzero"><path d="M1.283 67.124V64H3.54v3.124h1.828v1.813H3.539v5.323c0 .501.233.656.817.656.35 0 .7-.116 1.01-.193v1.851c-.622.077-1.166.155-1.788.155-1.672 0-2.295-.849-2.295-2.16v-5.593H0v-1.813l1.283-.039zM8.217 72.207c.039 1.929.894 2.7 1.944 2.7 1.05 0 1.517-.463 2.1-1.118l1.633 1.002c-.855 1.35-2.138 1.929-3.927 1.929C7.517 76.72 6 74.83 6 71.86 6 68.89 7.517 67 10.083 67c2.45 0 3.85 2.044 3.85 4.32v.926H8.217v-.039zm3.616-1.504c-.039-1.312-.739-2.044-1.789-2.044-1.088 0-1.75.771-1.788 2.044h3.577zM21.95 70.201c-.35-.81-.739-1.427-1.867-1.427-1.244 0-1.827.965-1.827 3.086 0 2.083.583 3.047 1.905 3.047.972 0 1.517-.656 1.983-1.504l1.712.964c-.895 1.659-2.062 2.353-3.773 2.353-2.527 0-4.083-1.89-4.083-4.86 0-2.97 1.517-4.86 4.083-4.86 1.79 0 3.19.926 3.695 2.507l-1.828.694zM25 77.037V64h2.256v4.667c.7-.578 1.594-1.196 2.683-1.196 1.867 0 2.8 1.235 2.8 3.125v6.441h-2.256v-6.094c0-1.273-.389-1.659-1.166-1.659-.973 0-1.711.579-2.1 1.003v6.789H25v-.039zM35 76.566v-9.373h2.061v1.003C37.878 67.617 38.85 67 39.94 67c1.867 0 2.761 1.234 2.761 3.124v6.442h-2.217V70.47c0-1.272-.389-1.658-1.166-1.658-.973 0-1.711.578-2.1 1.003v6.788H35v-.038zM48.083 67c2.567 0 4.084 1.89 4.084 4.86 0 2.97-1.517 4.86-4.084 4.86-2.566 0-4.083-1.89-4.083-4.86.039-2.97 1.556-4.86 4.083-4.86zm0 1.813c-1.244 0-1.827.964-1.827 3.086 0 2.082.583 3.047 1.827 3.047 1.245 0 1.828-.965 1.828-3.047.039-2.122-.583-3.086-1.828-3.086zM54 77.037V64h2.217v13.037zM62.083 67c2.567 0 4.084 1.89 4.084 4.86 0 2.97-1.517 4.86-4.084 4.86-2.566 0-4.083-1.89-4.083-4.86.039-2.97 1.556-4.86 4.083-4.86zm0 1.813c-1.244 0-1.827.964-1.827 3.086 0 2.082.583 3.047 1.827 3.047 1.245 0 1.828-.965 1.828-3.047.039-2.122-.544-3.086-1.828-3.086zM75.594 68.508c-.505 0-1.088 0-1.438.23.31.387.505.927.505 1.66 0 1.774-1.205 3.047-3.539 3.047-.972 0-1.75.038-1.75.578 0 1.505 6.184-.54 6.184 3.202 0 1.35-1.362 2.777-4.356 2.777-2.528 0-4.2-.772-4.2-2.237 0-1.157.894-1.736 1.672-1.736v-.077c-.428-.27-1.4-.502-1.4-1.504 0-.888 1.05-1.582 1.478-1.698-.778-.617-1.4-1.35-1.4-2.468 0-1.659 1.244-3.279 3.694-3.279.778 0 1.75.347 2.295.849.428-.579 1.128-.887 2.217-.849v1.505h.038zm-6.533 8.948c0 .694.622 1.042 2.489 1.042 1.439 0 1.944-.733 1.944-1.042 0-.424-.66-1.08-2.838-1.08-1.245 0-1.595.656-1.595 1.08zm1.983-8.833c-.972 0-1.633.695-1.633 1.543 0 .849.661 1.543 1.633 1.543.856 0 1.517-.694 1.517-1.543.039-.848-.661-1.543-1.517-1.543zM78 66.083V64h2.217v2.083H78zm2.256 8.37v2.777h-2.217v-9.373h2.217v6.596zM84.217 72.207c.039 1.929.894 2.7 1.944 2.7 1.05 0 1.517-.463 2.1-1.118l1.633 1.002c-.855 1.35-2.138 1.929-3.927 1.929-2.45 0-3.967-1.89-3.967-4.86 0-2.97 1.517-4.86 4.083-4.86 2.45 0 3.85 2.044 3.85 4.32v.926h-5.716v-.039zm3.616-1.504c-.039-1.312-.739-2.044-1.827-2.044-1.09 0-1.79.771-1.79 2.044h3.617zM96.289 69.661c-.467-.501-1.05-1.002-1.75-1.002-.856 0-1.245.347-1.245.925 0 1.62 4.706.926 4.706 4.359 0 1.928-1.478 2.816-3.461 2.816-1.478 0-2.722-.656-3.539-1.89l1.517-1.119c.505.733 1.205 1.35 2.177 1.35.778 0 1.323-.424 1.323-1.08 0-1.581-4.706-1.003-4.706-4.281 0-1.736 1.478-2.739 3.111-2.739 1.245 0 2.49.463 3.306 1.427l-1.44 1.234zM67.338 41.001c-1.79 2.739-4.667 4.436-7.856 4.436-4.355 0-7.972-1.967-7.972-6.634 0-6.904 10.15-9.334 17.928-9.797v2.044c.039 4.474-.04 6.866-2.1 9.951zM52.87 16.2c1.167-3.124 4.317-4.474 8.595-4.474 6.105 0 7.855 4.243 7.933 7.753l.039 1.697c-16.878.81-32.745 3.934-32.433 19.247.233 10.723 9.994 15.12 16.722 15.081 7.816 0 12.172-2.083 16.489-7.367.077 2.237.35 4.59.739 6.326h15.127c-.855-2.623-1.05-5.246-1.05-7.984v-27.81c0-6.75-1.283-10.53-4.939-13.809C76.633 1.736 70.955 0 63.293 0c-7 0-13.027 1.581-17.46 4.59 3.655 2.854 6.066 6.827 7.038 11.61z"/><path d="M36.222 39.844v1.389c.234 5.477 2.917 8.871 5.406 10.916-4.2 2.391-9.178 3.394-13.65 3.394C11.644 55.543 2 44.087 2 28.31 2 11.88 11.956 0 28.95 0c12.328 0 22.439 6.48 23.528 19.17H37.66c0-4.821-3.422-7.406-8.205-7.406-7.662 0-10.034 5.362-10.034 15.236 0 10.029 2.217 15.891 10.072 15.891 2.917.039 5.328-.964 6.728-3.047z"/></g></svg>