<?xml version="1.0" encoding="UTF-8"?>
<svg width="20px" height="16px" viewBox="0 0 20 16" version="1.1" xmlns="http://www.w3.org/2000/svg" xmlns:xlink="http://www.w3.org/1999/xlink">
    <!-- Generator: Sketch 52 (66869) - http://www.bohemiancoding.com/sketch -->
    <title>Path</title>
    <desc>Created with Sketch.</desc>
    <g id="wireframe" stroke="none" stroke-width="1" fill="none" fill-rule="evenodd">
        <g id="Desktop-HD-Copy-2" transform="translate(-752.000000, -396.000000)" fill="#FFFFFF">
            <g id="btn" transform="translate(728.000000, 384.000000)">
                <path d="M30.28984,28 C37.83728,28 41.96472,21.8449242 41.96472,16.5077321 C41.96472,16.3328313 41.96112,16.158718 41.95296,15.9855496 C42.75408,15.4154879 43.45056,14.704151 44,13.8942208 C43.26472,14.215673 42.47352,14.4323893 41.64352,14.5300377 C42.49064,14.0301411 43.14112,13.2388743 43.44784,12.2957801 C42.65488,12.7584286 41.77704,13.0950004 40.8424,13.2761224 C40.0936,12.4910768 39.02728,12 37.84728,12 C35.58104,12 33.74328,13.808936 33.74328,16.0388625 C33.74328,16.3559047 33.77936,16.6640483 33.84976,16.9598283 C30.4396,16.7910699 27.41552,15.1837305 25.392,12.7397651 C25.03928,13.3365227 24.83624,14.0301411 24.83624,14.7698274 C24.83624,16.171239 25.56072,17.4083021 26.66224,18.1320025 C25.9892,18.1116066 25.3568,17.9295396 24.80384,17.6266722 C24.80288,17.6435244 24.80288,17.6604554 24.80288,17.6781738 C24.80288,19.6346061 26.21752,21.2676963 28.09488,21.6380514 C27.75024,21.7303448 27.3876,21.780114 27.0132,21.780114 C26.74888,21.780114 26.49176,21.7543632 26.24184,21.7072715 C26.76416,23.3120121 28.27896,24.4797764 30.07512,24.5126933 C28.67048,25.5960389 26.90136,26.2416994 24.9788,26.2416994 C24.64776,26.2416994 24.32112,26.223036 24,26.1857091 C25.816,27.3312662 27.97216,28 30.28984,28 Z" id="Path"></path>
            </g>
        </g>
    </g>
</svg>