<svg width="171" height="24" xmlns="http://www.w3.org/2000/svg"><g fill-rule="nonzero" fill="none"><path d="M170.962 18.344v-9.02c0-2.531-1.345-3.954-5.038-3.954-3.748 0-4.885 1.423-4.885 3.901v.311s.49.129 1.032.129c.519 0 1.008-.129 1.008-.129v-.311c0-1.678.698-2.479 2.845-2.479 2.196 0 2.919.825 2.919 2.531v1.448l-3.385.36c-3.334.362-4.652 1.475-4.652 3.54v.387c0 2.225.982 3.491 3.567 3.491 2.92 0 4.47-1.243 4.47-1.243v1.036s.49.129 1.059.129c.543.002 1.06-.127 1.06-.127zm-2.119-2.483s-1.033 1.267-3.695 1.267c-1.68 0-2.197-.673-2.197-2.068v-.387c0-1.214.698-1.938 2.869-2.171l3.023-.362v3.721zm-14.403 2.612c.517 0 1.06-.129 1.06-.129V5.577s-.516-.129-1.06-.129c-.568 0-1.084.129-1.084.129v12.767s.516.129 1.084.129zm0-15.223c.517 0 1.06-.128 1.06-.128V.408s-.516-.127-1.06-.127c-.568 0-1.084.127-1.084.127v2.714s.516.128 1.084.128zm-5.875 3.594s.104-.312.104-.724c0-.44-.104-.75-.104-.75-3.05 0-4.6 1.755-4.6 1.755V5.577s-.517-.129-1.06-.129c-.568 0-1.087.129-1.087.129v12.767s.519.129 1.087.129c.517 0 1.06-.129 1.06-.129v-9.15c.001-.001 1.37-2.35 4.6-2.35zm-12.671 11.629c.542 0 1.061-.129 1.061-.129v-9.02c0-2.531-1.344-3.954-5.04-3.954-3.746 0-4.884 1.423-4.884 3.901v.311s.49.129 1.034.129c.517 0 1.008-.129 1.008-.129v-.311c0-1.678.696-2.479 2.842-2.479 2.195 0 2.921.825 2.921 2.531v1.448l-3.385.36c-3.335.362-4.652 1.475-4.652 3.54v.387c0 2.225.982 3.491 3.566 3.491 2.92 0 4.471-1.243 4.471-1.243v1.036c-.001.002.49.131 1.058.131zm-1.059-2.612s-1.034 1.267-3.697 1.267c-1.679 0-2.195-.673-2.195-2.068v-.387c0-1.214.699-1.938 2.869-2.171l3.023-.362v3.721zm-57.019 2.612c.542 0 1.059-.129 1.059-.129v-9.02c0-2.531-1.344-3.954-5.039-3.954-3.745 0-4.884 1.423-4.884 3.901v.311s.491.129 1.033.129c.517 0 1.009-.129 1.009-.129v-.311c0-1.678.697-2.479 2.842-2.479 2.197 0 2.92.825 2.92 2.531v1.448l-3.385.36c-3.334.362-4.65 1.475-4.65 3.54v.387c0 2.225.98 3.491 3.565 3.491 2.92 0 4.47-1.243 4.47-1.243v1.036c0 .002.492.131 1.06.131zm-1.06-2.612s-1.032 1.267-3.693 1.267c-1.681 0-2.198-.673-2.198-2.068v-.387c0-1.214.698-1.938 2.869-2.171l3.022-.362v3.721zM64.473 6.844s.104-.312.104-.724c0-.44-.104-.75-.104-.75-3.048 0-4.601 1.755-4.601 1.755V5.577s-.517-.129-1.059-.129a5.05 5.05 0 0 0-1.085.129v12.767s.516.129 1.085.129c.518 0 1.059-.129 1.059-.129v-9.15c0-.001 1.37-2.35 4.601-2.35zM52.368 19.61V5.577s-.516-.129-1.084-.129c-.568 0-1.06.129-1.06.129v1.034s-1.499-1.241-4.29-1.241c-2.764 0-3.798 1.499-3.798 4.11v4.961c0 2.611 1.214 4.109 4.443 4.109 2.74 0 3.567-1.033 3.645-1.164v2.224c0 1.833-.801 2.685-3.411 2.685-2.48 0-4.135-.617-4.135-.617s-.129.283-.129.724c0 .413.129.723.129.723s1.576.594 4.135.594c4.057-.001 5.555-1.498 5.555-4.109zm-2.143-5.169c0 1.834-.826 2.687-3.282 2.687-2.015 0-2.662-.853-2.662-2.687V9.48c0-1.836.545-2.688 2.353-2.688 2.609 0 3.592 1.263 3.592 1.263v6.386h-.001zm-13.112 0V9.48c0-2.611-1.473-4.11-5.271-4.11-3.8 0-5.272 1.499-5.272 4.11v4.961c0 2.611 1.473 4.109 5.272 4.109 3.799.001 5.271-1.497 5.271-4.109zm-2.144 0c0 1.834-.803 2.687-3.127 2.687-2.326 0-3.127-.853-3.127-2.687V9.48c0-1.836.801-2.688 3.127-2.688 2.324 0 3.127.852 3.127 2.688v4.961zM22.322 6.844s.104-.312.104-.724c0-.44-.104-.75-.104-.75-3.049 0-4.6 1.755-4.6 1.755V5.577s-.516-.129-1.061-.129c-.567 0-1.083.129-1.083.129v12.767s.516.129 1.083.129c.518 0 1.061-.129 1.061-.129v-9.15c.001-.001 1.369-2.35 4.6-2.35zm-12.051 7.597V9.48c0-2.611-1.033-4.11-3.798-4.11-2.791 0-4.29 1.241-4.29 1.241V5.577s-.516-.129-1.061-.129c-.567 0-1.084.129-1.084.129v17.937s.517.127 1.084.127c.545 0 1.061-.127 1.061-.127v-6.127c.077.131.878 1.164 3.645 1.164 3.229 0 4.443-1.498 4.443-4.11zm-2.144 0c0 1.834-.62 2.687-2.662 2.687-2.455 0-3.282-.853-3.282-2.687V8.056s.982-1.263 3.592-1.263c1.81 0 2.353.852 2.353 2.688v4.96h-.001z" fill="#FFF" opacity=".9"/><path d="M122.254 12.52s.108-.213.108-.583c0-.345-.108-.602-.108-.602-1.702 0-2.282-.731-2.282-2.22V5.648c0-2.174-1.1-3.424-3.921-3.424 0 0-.106.237-.106.604 0 .365.106.58.106.58 1.704 0 2.283.732 2.283 2.24v3.467c0 1.336.432 2.329 1.443 2.821-1.012.517-1.443 1.486-1.443 2.821v3.469c0 1.509-.579 2.24-2.283 2.24 0 0-.106.214-.106.581 0 .345.106.604.106.604 2.821 0 3.921-1.252 3.921-3.426v-3.469c0-1.483.58-2.236 2.282-2.236zM110.422 18.473c.568 0 1.084-.129 1.084-.129V9.247c0-2.481-.98-3.877-3.592-3.877-2.842 0-4.443 1.423-4.443 1.423-.467-.931-1.475-1.423-3.077-1.423-2.558 0-3.953 1.241-3.953 1.241V5.577s-.516-.129-1.061-.129c-.567 0-1.085.129-1.085.129v12.767s.518.129 1.085.129c.519 0 1.061-.129 1.061-.129V8.056s.903-1.263 3.23-1.263c1.653 0 2.17.774 2.17 2.454v9.097s.518.129 1.059.129c.545 0 1.062-.129 1.062-.129V8.056c.182-.23 1.111-1.263 3.256-1.263 1.627 0 2.146.774 2.146 2.454v9.097c-.002 0 .514.129 1.058.129zM85.975 11.937c1.012-.492 1.442-1.485 1.442-2.821V5.648c0-1.508.582-2.24 2.283-2.24 0 0 .108-.215.108-.58 0-.366-.108-.604-.108-.604-2.82 0-3.919 1.25-3.919 3.424v3.467c0 1.488-.582 2.22-2.284 2.22 0 0-.106.257-.106.602 0 .37.106.583.106.583 1.702 0 2.284.754 2.284 2.238v3.469c0 2.174 1.099 3.426 3.919 3.426 0 0 .108-.26.108-.604 0-.367-.108-.581-.108-.581-1.701 0-2.283-.731-2.283-2.24v-3.469c0-1.336-.431-2.306-1.442-2.822z" fill="#F0604A"/></g></svg>