<?xml version="1.0" encoding="utf-8"?>
<!-- Generator: Adobe Illustrator 23.0.0, SVG Export Plug-In . SVG Version: 6.00 Build 0)  -->
<svg version="1.1" id="Layer_1" xmlns="http://www.w3.org/2000/svg" xmlns:xlink="http://www.w3.org/1999/xlink" x="0px" y="0px"
	 viewBox="0 0 32 32" style="enable-background:new 0 0 32 32;" xml:space="preserve">
<style type="text/css">
	.st0{opacity:0.9;fill:#FFFFFF;enable-background:new    ;}
	.st1{fill:#F0604A;}
</style>
<g>
	<path class="st0" d="M172.3-14.8v-9c0-2.5-1.3-4-5-4c-3.7,0-4.9,1.4-4.9,3.9v0.3c0,0,0.5,0.1,1,0.1c0.5,0,1-0.1,1-0.1v-0.3
		c0-1.7,0.7-2.5,2.8-2.5c2.2,0,2.9,0.8,2.9,2.5v1.4l-3.4,0.4c-3.3,0.4-4.7,1.5-4.7,3.5v0.4c0,2.2,1,3.5,3.6,3.5
		c2.9,0,4.5-1.2,4.5-1.2v1c0,0,0.5,0.1,1.1,0.1C171.8-14.7,172.3-14.8,172.3-14.8L172.3-14.8z M170.2-17.3c0,0-1,1.3-3.7,1.3
		c-1.7,0-2.2-0.7-2.2-2.1v-0.4c0-1.2,0.7-1.9,2.9-2.2l3-0.4L170.2-17.3L170.2-17.3z M155.8-14.7c0.5,0,1.1-0.1,1.1-0.1v-12.8
		c0,0-0.5-0.1-1.1-0.1c-0.6,0-1.1,0.1-1.1,0.1v12.8C154.7-14.8,155.2-14.7,155.8-14.7z M155.8-29.9c0.5,0,1.1-0.1,1.1-0.1v-2.7
		c0,0-0.5-0.1-1.1-0.1c-0.6,0-1.1,0.1-1.1,0.1v2.7C154.7-30,155.2-29.9,155.8-29.9z M149.9-26.3c0,0,0.1-0.3,0.1-0.7
		c0-0.4-0.1-0.8-0.1-0.8c-3.1,0-4.6,1.8-4.6,1.8v-1.5c0,0-0.5-0.1-1.1-0.1c-0.6,0-1.1,0.1-1.1,0.1v12.8c0,0,0.5,0.1,1.1,0.1
		c0.5,0,1.1-0.1,1.1-0.1V-24C145.3-24,146.7-26.3,149.9-26.3z M137.3-14.7c0.5,0,1.1-0.1,1.1-0.1v-9c0-2.5-1.3-4-5-4
		c-3.7,0-4.9,1.4-4.9,3.9v0.3c0,0,0.5,0.1,1,0.1c0.5,0,1-0.1,1-0.1v-0.3c0-1.7,0.7-2.5,2.8-2.5c2.2,0,2.9,0.8,2.9,2.5v1.4l-3.4,0.4
		c-3.3,0.4-4.7,1.5-4.7,3.5v0.4c0,2.2,1,3.5,3.6,3.5c2.9,0,4.5-1.2,4.5-1.2v1C136.2-14.8,136.7-14.7,137.3-14.7z M136.2-17.3
		c0,0-1,1.3-3.7,1.3c-1.7,0-2.2-0.7-2.2-2.1v-0.4c0-1.2,0.7-1.9,2.9-2.2l3-0.4L136.2-17.3L136.2-17.3z M79.2-14.7
		c0.5,0,1.1-0.1,1.1-0.1v-9c0-2.5-1.3-4-5-4c-3.7,0-4.9,1.4-4.9,3.9v0.3c0,0,0.5,0.1,1,0.1c0.5,0,1-0.1,1-0.1v-0.3
		c0-1.7,0.7-2.5,2.8-2.5c2.2,0,2.9,0.8,2.9,2.5v1.4L74.7-22c-3.3,0.4-4.7,1.5-4.7,3.5v0.4c0,2.2,1,3.5,3.6,3.5
		c2.9,0,4.5-1.2,4.5-1.2v1C78.1-14.8,78.6-14.7,79.2-14.7z M78.1-17.3c0,0-1,1.3-3.7,1.3c-1.7,0-2.2-0.7-2.2-2.1v-0.4
		c0-1.2,0.7-1.9,2.9-2.2l3-0.4C78.1-21,78.1-17.3,78.1-17.3z M65.8-26.3c0,0,0.1-0.3,0.1-0.7c0-0.4-0.1-0.8-0.1-0.8
		c-3,0-4.6,1.8-4.6,1.8v-1.5c0,0-0.5-0.1-1.1-0.1c-0.4,0-0.7,0-1.1,0.1v12.8c0,0,0.5,0.1,1.1,0.1c0.5,0,1.1-0.1,1.1-0.1V-24
		C61.2-24,62.6-26.3,65.8-26.3z M53.7-13.5v-14c0,0-0.5-0.1-1.1-0.1s-1.1,0.1-1.1,0.1v1c0,0-1.5-1.2-4.3-1.2c-2.8,0-3.8,1.5-3.8,4.1
		v5c0,2.6,1.2,4.1,4.4,4.1c2.7,0,3.6-1,3.6-1.2v2.2c0,1.8-0.8,2.7-3.4,2.7c-2.5,0-4.1-0.6-4.1-0.6s-0.1,0.3-0.1,0.7
		c0,0.4,0.1,0.7,0.1,0.7s1.6,0.6,4.1,0.6C52.2-9.4,53.7-10.9,53.7-13.5z M51.6-18.7c0,1.8-0.8,2.7-3.3,2.7c-2,0-2.7-0.9-2.7-2.7v-5
		c0-1.8,0.5-2.7,2.4-2.7c2.6,0,3.6,1.3,3.6,1.3L51.6-18.7L51.6-18.7z M38.5-18.7v-5c0-2.6-1.5-4.1-5.3-4.1c-3.8,0-5.3,1.5-5.3,4.1v5
		c0,2.6,1.5,4.1,5.3,4.1C37-14.6,38.5-16.1,38.5-18.7z M36.3-18.7c0,1.8-0.8,2.7-3.1,2.7c-2.3,0-3.1-0.9-3.1-2.7v-5
		c0-1.8,0.8-2.7,3.1-2.7c2.3,0,3.1,0.9,3.1,2.7V-18.7z M23.7-26.3c0,0,0.1-0.3,0.1-0.7c0-0.4-0.1-0.8-0.1-0.8c-3,0-4.6,1.8-4.6,1.8
		v-1.5c0,0-0.5-0.1-1.1-0.1c-0.6,0-1.1,0.1-1.1,0.1v12.8c0,0,0.5,0.1,1.1,0.1c0.5,0,1.1-0.1,1.1-0.1V-24
		C19.1-24,20.5-26.3,23.7-26.3z M11.6-18.7v-5c0-2.6-1-4.1-3.8-4.1c-2.8,0-4.3,1.2-4.3,1.2v-1c0,0-0.5-0.1-1.1-0.1
		c-0.6,0-1.1,0.1-1.1,0.1v17.9c0,0,0.5,0.1,1.1,0.1c0.5,0,1.1-0.1,1.1-0.1v-6.1c0.1,0.1,0.9,1.2,3.6,1.2
		C10.4-14.6,11.6-16.1,11.6-18.7z M9.5-18.7c0,1.8-0.6,2.7-2.7,2.7c-2.5,0-3.3-0.9-3.3-2.7v-6.4c0,0,1-1.3,3.6-1.3
		c1.8,0,2.4,0.9,2.4,2.7L9.5-18.7L9.5-18.7z"/>
	<path class="st1" d="M123.6-20.6c0,0,0.1-0.2,0.1-0.6c0-0.3-0.1-0.6-0.1-0.6c-1.7,0-2.3-0.7-2.3-2.2v-3.5c0-2.2-1.1-3.4-3.9-3.4
		c0,0-0.1,0.2-0.1,0.6c0,0.4,0.1,0.6,0.1,0.6c1.7,0,2.3,0.7,2.3,2.2v3.5c0,1.3,0.4,2.3,1.4,2.8c-1,0.5-1.4,1.5-1.4,2.8v3.5
		c0,1.5-0.6,2.2-2.3,2.2c0,0-0.1,0.2-0.1,0.6c0,0.3,0.1,0.6,0.1,0.6c2.8,0,3.9-1.3,3.9-3.4v-3.5C121.3-19.9,121.9-20.6,123.6-20.6z
		 M111.8-14.7c0.6,0,1.1-0.1,1.1-0.1v-9.1c0-2.5-1-3.9-3.6-3.9c-2.8,0-4.4,1.4-4.4,1.4c-0.5-0.9-1.5-1.4-3.1-1.4c-2.6,0-4,1.2-4,1.2
		v-1c0,0-0.5-0.1-1.1-0.1c-0.6,0-1.1,0.1-1.1,0.1v12.8c0,0,0.5,0.1,1.1,0.1c0.5,0,1.1-0.1,1.1-0.1v-10.3c0,0,0.9-1.3,3.2-1.3
		c1.7,0,2.2,0.8,2.2,2.5v9.1c0,0,0.5,0.1,1.1,0.1c0.5,0,1.1-0.1,1.1-0.1v-10.3c0.2-0.2,1.1-1.3,3.3-1.3c1.6,0,2.1,0.8,2.1,2.5v9.1
		C110.7-14.8,111.2-14.7,111.8-14.7L111.8-14.7z M87.3-21.2c1-0.5,1.4-1.5,1.4-2.8v-3.5c0-1.5,0.6-2.2,2.3-2.2c0,0,0.1-0.2,0.1-0.6
		c0-0.4-0.1-0.6-0.1-0.6c-2.8,0-3.9,1.2-3.9,3.4v3.5c0,1.5-0.6,2.2-2.3,2.2c0,0-0.1,0.3-0.1,0.6c0,0.4,0.1,0.6,0.1,0.6
		c1.7,0,2.3,0.8,2.3,2.2v3.5c0,2.2,1.1,3.4,3.9,3.4c0,0,0.1-0.3,0.1-0.6c0-0.4-0.1-0.6-0.1-0.6c-1.7,0-2.3-0.7-2.3-2.2v-3.5
		C88.8-19.7,88.3-20.7,87.3-21.2z"/>
</g>
<path class="st1" d="M31.6,16.9c0,0,0.1-0.2,0.1-0.5c0-0.3-0.1-0.5-0.1-0.5c-1.5,0-2.1-0.7-2.1-2v-3.1c0-2-1-3.1-3.5-3.1
	c0,0-0.1,0.2-0.1,0.5c0,0.3,0.1,0.5,0.1,0.5c1.5,0,2.1,0.7,2.1,2v3.1c0,1.2,0.4,2.1,1.3,2.5c-0.9,0.5-1.3,1.3-1.3,2.5V22
	c0,1.4-0.5,2-2.1,2c0,0-0.1,0.2-0.1,0.5c0,0.3,0.1,0.5,0.1,0.5c2.5,0,3.5-1.1,3.5-3.1v-3.1C29.6,17.5,30.1,16.9,31.6,16.9z
	 M22.8,22.2c0.5,0,1-0.1,1-0.1v-8.2c0-2.2-0.9-3.5-3.2-3.5c-2.6,0-4,1.3-4,1.3c-0.4-0.8-1.3-1.3-2.8-1.3c-2.3,0-3.6,1.1-3.6,1.1
	v-0.9c0,0-0.5-0.1-1-0.1c-0.5,0-1,0.1-1,0.1v11.5c0,0,0.5,0.1,1,0.1c0.5,0,1-0.1,1-0.1v-9.3c0,0,0.8-1.1,2.9-1.1c1.5,0,2,0.7,2,2.2
	v8.2c0,0,0.5,0.1,1,0.1c0.5,0,1-0.1,1-0.1v-9.3c0.2-0.2,1-1.1,2.9-1.1c1.5,0,1.9,0.7,1.9,2.2v8.2C21.8,22.1,22.3,22.2,22.8,22.2
	L22.8,22.2z M2.6,16.3c0.9-0.4,1.3-1.3,1.3-2.5v-3.1c0-1.4,0.5-2,2.1-2c0,0,0.1-0.2,0.1-0.5c0-0.3-0.1-0.5-0.1-0.5
	c-2.5,0-3.5,1.1-3.5,3.1v3.1c0,1.3-0.5,2-2.1,2c0,0-0.1,0.2-0.1,0.5c0,0.3,0.1,0.5,0.1,0.5c1.5,0,2.1,0.7,2.1,2V22
	c0,2,1,3.1,3.5,3.1c0,0,0.1-0.2,0.1-0.5C6,24.2,5.9,24,5.9,24c-1.5,0-2.1-0.7-2.1-2v-3.1C3.9,17.7,3.5,16.8,2.6,16.3z"/>
</svg>
