<svg width="40" height="33" xmlns="http://www.w3.org/2000/svg"><g fill="#4A4A4A" fill-rule="nonzero"><path d="M.524 27.626v-1.273h.92v1.273h.746v.738h-.746v2.169c0 .204.096.267.334.267.143 0 .285-.047.412-.079v.755c-.253.031-.476.063-.73.063-.682 0-.936-.346-.936-.88V28.38H0v-.739l.524-.015zM3.556 29.684c.015.786.365 1.1.793 1.1.429 0 .62-.188.857-.455l.667.408c-.35.55-.873.786-1.603.786-1 0-1.62-.77-1.62-1.98s.62-1.98 1.667-1.98c1 0 1.572.833 1.572 1.76v.377H3.556v-.016zm1.476-.613c-.016-.534-.302-.832-.73-.832-.445 0-.715.314-.73.832h1.46zM8.841 28.867c-.143-.33-.301-.581-.762-.581-.508 0-.746.393-.746 1.257 0 .848.238 1.241.778 1.241.397 0 .62-.267.81-.613l.698.393c-.365.676-.841.959-1.54.959-1.031 0-1.666-.77-1.666-1.98s.619-1.98 1.666-1.98c.73 0 1.302.377 1.508 1.021l-.746.283zM10.302 31.444v-5.311h.92v1.901c.286-.235.651-.487 1.095-.487.762 0 1.143.503 1.143 1.273v2.624h-.92v-2.483c0-.518-.159-.675-.477-.675-.396 0-.698.235-.857.408v2.766h-.904v-.016zM14.397 31.444v-3.818h.841v.408c.333-.235.73-.487 1.175-.487.762 0 1.127.503 1.127 1.273v2.624h-.905v-2.483c0-.518-.159-.675-.476-.675-.397 0-.699.235-.857.408v2.766h-.905v-.016zM19.857 27.547c1.048 0 1.667.77 1.667 1.98s-.62 1.98-1.667 1.98c-1.047 0-1.667-.77-1.667-1.98.016-1.21.635-1.98 1.667-1.98zm0 .739c-.508 0-.746.393-.746 1.257 0 .848.238 1.241.746 1.241s.746-.393.746-1.241c.016-.864-.238-1.257-.746-1.257zM22.27 31.444v-5.311h.905v5.311zM25.587 27.547c1.048 0 1.667.77 1.667 1.98s-.62 1.98-1.667 1.98c-1.047 0-1.666-.77-1.666-1.98.016-1.21.635-1.98 1.666-1.98zm0 .739c-.508 0-.746.393-.746 1.257 0 .848.238 1.241.746 1.241s.746-.393.746-1.241c.016-.864-.222-1.257-.746-1.257zM31.032 28.176c-.207 0-.445 0-.588.094.127.157.207.377.207.676 0 .723-.492 1.241-1.445 1.241-.396 0-.714.016-.714.236 0 .613 2.524-.22 2.524 1.304 0 .55-.556 1.132-1.778 1.132-1.032 0-1.714-.315-1.714-.912a.68.68 0 0 1 .682-.707v-.031c-.174-.11-.571-.205-.571-.613 0-.362.428-.645.603-.692-.317-.251-.571-.55-.571-1.005 0-.676.508-1.336 1.508-1.336.317 0 .714.141.936.346.175-.236.46-.362.905-.346v.613h.016zm-2.667 3.645c0 .283.254.425 1.016.425.587 0 .794-.299.794-.425 0-.172-.27-.44-1.16-.44-.507 0-.65.268-.65.44zm.81-3.598c-.397 0-.667.283-.667.628 0 .346.27.629.667.629a.62.62 0 0 0 .619-.629.61.61 0 0 0-.62-.628zM31.683 26.919v-.849h.904v.849h-.904zm.92 3.41v1.131h-.905v-3.819h.905v2.688zM34.254 29.684c.016.786.365 1.1.794 1.1.428 0 .619-.188.857-.455l.666.408c-.349.55-.873.786-1.603.786-1 0-1.619-.77-1.619-1.98s.62-1.98 1.667-1.98c1 0 1.571.833 1.571 1.76v.377h-2.333v-.016zm1.476-.613c-.016-.534-.301-.832-.746-.832-.444 0-.73.314-.73.832h1.476zM39.19 28.631c-.19-.204-.428-.408-.714-.408-.349 0-.508.141-.508.377 0 .66 1.92.377 1.92 1.776 0 .785-.602 1.147-1.412 1.147a1.672 1.672 0 0 1-1.444-.77l.619-.456c.206.299.492.55.889.55.317 0 .54-.173.54-.44 0-.644-1.921-.408-1.921-1.744 0-.707.603-1.116 1.27-1.116.508 0 1.015.189 1.349.582l-.588.502zM27.683 16.799c-.73 1.115-1.905 1.807-3.207 1.807-1.778 0-3.254-.802-3.254-2.703 0-2.813 4.143-3.803 7.318-3.992v.833c.016 1.823-.016 2.797-.857 4.055zM21.778 6.694c.476-1.273 1.762-1.823 3.508-1.823 2.492 0 3.206 1.729 3.238 3.159l.016.691c-6.89.33-13.365 1.603-13.238 7.842.095 4.368 4.079 6.16 6.825 6.144 3.19 0 4.968-.848 6.73-3.001.032.911.143 1.87.302 2.577h6.174c-.349-1.069-.428-2.137-.428-3.253V7.7c0-2.75-.524-4.29-2.016-5.626-1.413-1.273-3.73-1.98-6.857-1.98-2.857 0-5.318.645-7.127 1.87 1.492 1.163 2.476 2.782 2.873 4.73z"/><path d="M14.952 16.327V16.893c.096 2.231 1.19 3.614 2.207 4.447-1.715.974-3.746 1.383-5.572 1.383-6.666 0-10.603-4.667-10.603-11.094 0-6.695 4.064-11.535 11-11.535 5.032 0 9.159 2.64 9.603 7.81H15.54c0-1.964-1.397-3.017-3.35-3.017-3.127 0-4.095 2.184-4.095 6.207 0 4.086.905 6.475 4.111 6.475 1.19.015 2.175-.393 2.746-1.242z"/></g></svg>