<?xml version="1.0" encoding="UTF-8"?>
<svg width="40px" height="33px" viewBox="0 0 40 33" version="1.1" xmlns="http://www.w3.org/2000/svg" xmlns:xlink="http://www.w3.org/1999/xlink">
    <!-- Generator: Sketch 52 (66869) - http://www.bohemiancoding.com/sketch -->
    <title>CA_Technologies_logo</title>
    <desc>Created with Sketch.</desc>
    <g id="wireframe" stroke="none" stroke-width="1" fill="none" fill-rule="evenodd">
        <g id="Desktop-HD-Copy-2" transform="translate(-700.000000, -2184.000000)" fill="#4A4A4A" fill-rule="nonzero">
            <g id="CA_Technologies_logo" transform="translate(700.000000, 2184.000000)">
                <path d="M0.523809524,27.6257143 L0.523809524,26.3528571 L1.44444444,26.3528571 L1.44444444,27.6257143 L2.19047619,27.6257143 L2.19047619,28.3642857 L1.44444444,28.3642857 L1.44444444,30.5328571 C1.44444444,30.7371429 1.53968254,30.8 1.77777778,30.8 C1.92063492,30.8 2.06349206,30.7528571 2.19047619,30.7214286 L2.19047619,31.4757143 C1.93650794,31.5071429 1.71428571,31.5385714 1.46031746,31.5385714 C0.777777778,31.5385714 0.523809524,31.1928571 0.523809524,30.6585714 L0.523809524,28.38 L0,28.38 L0,27.6414286 L0.523809524,27.6257143 Z" id="path2"></path>
                <path d="M3.55555556,29.6842857 C3.57142857,30.47 3.92063492,30.7842857 4.34920635,30.7842857 C4.77777778,30.7842857 4.96825397,30.5957143 5.20634921,30.3285714 L5.87301587,30.7371429 C5.52380952,31.2871429 5,31.5228571 4.26984127,31.5228571 C3.26984127,31.5228571 2.65079365,30.7528571 2.65079365,29.5428571 C2.65079365,28.3328571 3.26984127,27.5628571 4.31746032,27.5628571 C5.31746032,27.5628571 5.88888889,28.3957143 5.88888889,29.3228571 L5.88888889,29.7 L3.55555556,29.7 L3.55555556,29.6842857 Z M5.03174603,29.0714286 C5.01587302,28.5371429 4.73015873,28.2385714 4.3015873,28.2385714 C3.85714286,28.2385714 3.58730159,28.5528571 3.57142857,29.0714286 L5.03174603,29.0714286 Z" id="path4"></path>
                <path d="M8.84126984,28.8671429 C8.6984127,28.5371429 8.53968254,28.2857143 8.07936508,28.2857143 C7.57142857,28.2857143 7.33333333,28.6785714 7.33333333,29.5428571 C7.33333333,30.3914286 7.57142857,30.7842857 8.11111111,30.7842857 C8.50793651,30.7842857 8.73015873,30.5171429 8.92063492,30.1714286 L9.61904762,30.5642857 C9.25396825,31.24 8.77777778,31.5228571 8.07936508,31.5228571 C7.04761905,31.5228571 6.41269841,30.7528571 6.41269841,29.5428571 C6.41269841,28.3328571 7.03174603,27.5628571 8.07936508,27.5628571 C8.80952381,27.5628571 9.38095238,27.94 9.58730159,28.5842857 L8.84126984,28.8671429 Z" id="path6"></path>
                <path d="M10.3015873,31.4442857 L10.3015873,26.1328571 L11.2222222,26.1328571 L11.2222222,28.0342857 C11.5079365,27.7985714 11.8730159,27.5471429 12.3174603,27.5471429 C13.0793651,27.5471429 13.4603175,28.05 13.4603175,28.82 L13.4603175,31.4442857 L12.5396825,31.4442857 L12.5396825,28.9614286 C12.5396825,28.4428571 12.3809524,28.2857143 12.0634921,28.2857143 C11.6666667,28.2857143 11.3650794,28.5214286 11.2063492,28.6942857 L11.2063492,31.46 L10.3015873,31.46 L10.3015873,31.4442857 Z" id="path8"></path>
                <path d="M14.3968254,31.4442857 L14.3968254,27.6257143 L15.2380952,27.6257143 L15.2380952,28.0342857 C15.5714286,27.7985714 15.968254,27.5471429 16.4126984,27.5471429 C17.1746032,27.5471429 17.5396825,28.05 17.5396825,28.82 L17.5396825,31.4442857 L16.6349206,31.4442857 L16.6349206,28.9614286 C16.6349206,28.4428571 16.4761905,28.2857143 16.1587302,28.2857143 C15.7619048,28.2857143 15.4603175,28.5214286 15.3015873,28.6942857 L15.3015873,31.46 L14.3968254,31.46 L14.3968254,31.4442857 Z" id="path10"></path>
                <path d="M19.8571429,27.5471429 C20.9047619,27.5471429 21.5238095,28.3171429 21.5238095,29.5271429 C21.5238095,30.7371429 20.9047619,31.5071429 19.8571429,31.5071429 C18.8095238,31.5071429 18.1904762,30.7371429 18.1904762,29.5271429 C18.2063492,28.3171429 18.8253968,27.5471429 19.8571429,27.5471429 Z M19.8571429,28.2857143 C19.3492063,28.2857143 19.1111111,28.6785714 19.1111111,29.5428571 C19.1111111,30.3914286 19.3492063,30.7842857 19.8571429,30.7842857 C20.3650794,30.7842857 20.6031746,30.3914286 20.6031746,29.5428571 C20.6190476,28.6785714 20.3650794,28.2857143 19.8571429,28.2857143 Z" id="path12"></path>
                <polygon id="path14" points="22.2698413 31.4442857 22.2698413 26.1328571 23.1746032 26.1328571 23.1746032 30.1085714 23.1746032 31.4442857"></polygon>
                <path d="M25.5873016,27.5471429 C26.6349206,27.5471429 27.2539683,28.3171429 27.2539683,29.5271429 C27.2539683,30.7371429 26.6349206,31.5071429 25.5873016,31.5071429 C24.5396825,31.5071429 23.9206349,30.7371429 23.9206349,29.5271429 C23.9365079,28.3171429 24.5555556,27.5471429 25.5873016,27.5471429 Z M25.5873016,28.2857143 C25.0793651,28.2857143 24.8412698,28.6785714 24.8412698,29.5428571 C24.8412698,30.3914286 25.0793651,30.7842857 25.5873016,30.7842857 C26.0952381,30.7842857 26.3333333,30.3914286 26.3333333,29.5428571 C26.3492063,28.6785714 26.1111111,28.2857143 25.5873016,28.2857143 Z" id="path16"></path>
                <path d="M31.031746,28.1757143 C30.8253968,28.1757143 30.5873016,28.1757143 30.4444444,28.27 C30.5714286,28.4271429 30.6507937,28.6471429 30.6507937,28.9457143 C30.6507937,29.6685714 30.1587302,30.1871429 29.2063492,30.1871429 C28.8095238,30.1871429 28.4920635,30.2028571 28.4920635,30.4228571 C28.4920635,31.0357143 31.015873,30.2028571 31.015873,31.7271429 C31.015873,32.2771429 30.4603175,32.8585714 29.2380952,32.8585714 C28.2063492,32.8585714 27.5238095,32.5442857 27.5238095,31.9471429 C27.5238095,31.4757143 27.8888889,31.24 28.2063492,31.24 L28.2063492,31.2085714 C28.031746,31.0985714 27.6349206,31.0042857 27.6349206,30.5957143 C27.6349206,30.2342857 28.0634921,29.9514286 28.2380952,29.9042857 C27.9206349,29.6528571 27.6666667,29.3542857 27.6666667,28.8985714 C27.6666667,28.2228571 28.1746032,27.5628571 29.1746032,27.5628571 C29.4920635,27.5628571 29.8888889,27.7042857 30.1111111,27.9085714 C30.2857143,27.6728571 30.5714286,27.5471429 31.015873,27.5628571 L31.015873,28.1757143 L31.031746,28.1757143 Z M28.3650794,31.8214286 C28.3650794,32.1042857 28.6190476,32.2457143 29.3809524,32.2457143 C29.968254,32.2457143 30.1746032,31.9471429 30.1746032,31.8214286 C30.1746032,31.6485714 29.9047619,31.3814286 29.015873,31.3814286 C28.5079365,31.3814286 28.3650794,31.6485714 28.3650794,31.8214286 Z M29.1746032,28.2228571 C28.7777778,28.2228571 28.5079365,28.5057143 28.5079365,28.8514286 C28.5079365,29.1971429 28.7777778,29.48 29.1746032,29.48 C29.5238095,29.48 29.7936508,29.1971429 29.7936508,28.8514286 C29.8095238,28.5057143 29.5238095,28.2228571 29.1746032,28.2228571 Z" id="path18"></path>
                <path d="M31.6825397,26.9185714 L31.6825397,26.07 L32.5873016,26.07 L32.5873016,26.4471429 L32.5873016,26.9185714 L31.6825397,26.9185714 Z M32.6031746,30.3285714 L32.6031746,31.46 L31.6984127,31.46 L31.6984127,27.6414286 L32.6031746,27.6414286 L32.6031746,30.3285714 Z" id="path20"></path>
                <path d="M34.2539683,29.6842857 C34.2698413,30.47 34.6190476,30.7842857 35.047619,30.7842857 C35.4761905,30.7842857 35.6666667,30.5957143 35.9047619,30.3285714 L36.5714286,30.7371429 C36.2222222,31.2871429 35.6984127,31.5228571 34.968254,31.5228571 C33.968254,31.5228571 33.3492063,30.7528571 33.3492063,29.5428571 C33.3492063,28.3328571 33.968254,27.5628571 35.015873,27.5628571 C36.015873,27.5628571 36.5873016,28.3957143 36.5873016,29.3228571 L36.5873016,29.7 L34.2539683,29.7 L34.2539683,29.6842857 Z M35.7301587,29.0714286 C35.7142857,28.5371429 35.4285714,28.2385714 34.984127,28.2385714 C34.5396825,28.2385714 34.2539683,28.5528571 34.2539683,29.0714286 L35.7301587,29.0714286 Z" id="path22"></path>
                <path d="M39.1904762,28.6314286 C39,28.4271429 38.7619048,28.2228571 38.4761905,28.2228571 C38.1269841,28.2228571 37.968254,28.3642857 37.968254,28.6 C37.968254,29.26 39.8888889,28.9771429 39.8888889,30.3757143 C39.8888889,31.1614286 39.2857143,31.5228571 38.4761905,31.5228571 C37.8730159,31.5228571 37.3650794,31.2557143 37.031746,30.7528571 L37.6507937,30.2971429 C37.8571429,30.5957143 38.1428571,30.8471429 38.5396825,30.8471429 C38.8571429,30.8471429 39.0793651,30.6742857 39.0793651,30.4071429 C39.0793651,29.7628571 37.1587302,29.9985714 37.1587302,28.6628571 C37.1587302,27.9557143 37.7619048,27.5471429 38.4285714,27.5471429 C38.9365079,27.5471429 39.4444444,27.7357143 39.7777778,28.1285714 L39.1904762,28.6314286 Z" id="path24"></path>
                <path d="M27.6825397,16.7985714 C26.952381,17.9142857 25.7777778,18.6057143 24.4761905,18.6057143 C22.6984127,18.6057143 21.2222222,17.8042857 21.2222222,15.9028571 C21.2222222,13.09 25.3650794,12.1 28.5396825,11.9114286 L28.5396825,12.7442857 C28.5555556,14.5671429 28.5238095,15.5414286 27.6825397,16.7985714 Z M21.7777778,6.69428571 C22.2539683,5.42142857 23.5396825,4.87142857 25.2857143,4.87142857 C27.7777778,4.87142857 28.4920635,6.6 28.5238095,8.03 L28.5396825,8.72142857 C21.6507937,9.05142857 15.1746032,10.3242857 15.3015873,16.5628571 C15.3968254,20.9314286 19.3809524,22.7228571 22.1269841,22.7071429 C25.3174603,22.7071429 27.0952381,21.8585714 28.8571429,19.7057143 C28.8888889,20.6171429 29,21.5757143 29.1587302,22.2828571 L35.3333333,22.2828571 C34.984127,21.2142857 34.9047619,20.1457143 34.9047619,19.03 L34.9047619,7.7 C34.9047619,4.95 34.3809524,3.41 32.8888889,2.07428571 C31.4761905,0.801428571 29.1587302,0.0942857143 26.031746,0.0942857143 C23.1746032,0.0942857143 20.7142857,0.738571429 18.9047619,1.96428571 C20.3968254,3.12714286 21.3809524,4.74571429 21.7777778,6.69428571 Z" id="path26"></path>
                <path d="M14.952381,16.3271429 C14.952381,16.4528571 14.952381,16.5785714 14.952381,16.72 C14.952381,16.7828571 14.952381,16.8457143 14.952381,16.8928571 C15.047619,19.1242857 16.1428571,20.5071429 17.1587302,21.34 C15.4444444,22.3142857 13.4126984,22.7228571 11.5873016,22.7228571 C4.92063492,22.7228571 0.984126984,18.0557143 0.984126984,11.6285714 C0.984126984,4.93428571 5.04761905,0.0942857143 11.984127,0.0942857143 C17.015873,0.0942857143 21.1428571,2.73428571 21.5873016,7.90428571 L15.5396825,7.90428571 C15.5396825,5.94 14.1428571,4.88714286 12.1904762,4.88714286 C9.06349206,4.88714286 8.0952381,7.07142857 8.0952381,11.0942857 C8.0952381,15.18 9,17.5685714 12.2063492,17.5685714 C13.3968254,17.5842857 14.3809524,17.1757143 14.952381,16.3271429 Z" id="path28"></path>
            </g>
        </g>
    </g>
</svg>