<svg width="109" height="126" xmlns="http://www.w3.org/2000/svg"><g fill="none" fill-rule="evenodd"><g fill="#FF4747"><path d="M31.07 67.84l-.013 5.55c-.007 2.136-.696 3.719-2.311 4.508 1.611.83 2.295 2.383 2.29 4.521l-.014 5.548c-.007 2.414.916 3.588 3.627 3.597 0 0 .171.343.168.929-.002.55-.172.968-.172.968-4.495-.014-6.24-2.015-6.234-5.496l.017-5.552c.003-2.374-.919-3.584-3.628-3.591 0 0-.172-.344-.17-.928.002-.556.176-.97.176-.97 2.71.01 3.637-1.16 3.642-3.54l.015-5.551c.006-3.48 1.762-5.477 6.257-5.464 0 0 .169.379.166.967-.002.587-.172.929-.172.929-2.71-.011-3.639 1.16-3.644 3.576M42.022 67.753s.825-.21 1.73-.205c.864 0 1.687.212 1.687.212l-.004 1.656s2.227-1.984 6.302-1.971c2.553.008 4.155.797 4.891 2.286 0 0 2.559-2.267 7.086-2.26 4.158.011 5.715 2.25 5.705 6.218l-.035 14.56s-.822.204-1.731.2a8.192 8.192 0 0 1-1.687-.208l.038-14.56c.005-2.686-.815-3.93-3.407-3.934-3.419-.012-4.901 1.64-5.192 2.009l-.04 16.462s-.822.204-1.688.2c-.864 0-1.687-.209-1.687-.209l.035-14.56c.007-2.687-.813-3.927-3.447-3.934-3.706-.007-5.15 2.014-5.15 2.014l-.04 16.462s-.865.199-1.688.199c-.905-.003-1.73-.208-1.73-.208l.052-20.429zM76.514 63.434c0-.585.173-.966.173-.966 4.493.011 6.238 2.016 6.228 5.497l-.01 5.55c-.008 2.38.915 3.55 3.621 3.556 0 0 .172.413.172.967 0 .586-.177.93-.177.93-2.706-.006-3.635 1.201-3.64 3.577l-.015 5.55c-.007 3.48-1.765 5.474-6.255 5.467 0 0-.172-.418-.172-.968.005-.586.177-.932.177-.932 2.707.004 3.635-1.163 3.644-3.577l.012-5.55c.003-2.136.695-3.685 2.31-4.508-1.61-.797-2.293-2.384-2.288-4.52l.012-5.55c.01-2.415-.917-3.59-3.624-3.593 0 .003-.172-.345-.168-.93"/></g><path d="M12.657 6.535C12.664 3.62 11.82 2.263 9 2.255 4.934 2.245 3.403 4.25 3.403 4.25L3.38 14.392c-.006 2.917 1.277 4.27 5.102 4.282 3.183.006 4.15-1.346 4.158-4.259l.018-7.88zM3.409 1.953S5.745-.01 10.096 0C14.404.008 16.01 2.395 16 6.542l-.019 7.88c-.01 4.144-1.908 6.522-6.942 6.51-4.31-.012-5.554-1.66-5.672-1.861l-.023 9.73s-.811.202-1.655.199C.804 29 0 28.79 0 28.79L.068.3S.872.1 1.759.104c.844 0 1.654.206 1.654.206l-.004 1.643zM28.473 2.803S30.96-.012 35.837 0c0 0 .165.502.163 1.206-.002.664-.168 1.162-.168 1.162-5.169-.016-7.366 3.751-7.366 3.751l-.035 14.677s-.87.204-1.697.204c-.91-.005-1.734-.213-1.734-.213l.05-20.48s.823-.205 1.734-.205c.867.003 1.694.211 1.694.211l-.005 2.49zM45.454 14.44c-.01 2.921 1.278 4.287 5.026 4.294 3.744.007 5.038-1.345 5.044-4.267l.021-7.91c.004-2.921-1.278-4.282-5.027-4.293-3.747-.008-5.04 1.345-5.046 4.27l-.018 7.905zm-3.436-7.914c.01-4.156 2.39-6.542 8.508-6.526 6.12.016 8.483 2.41 8.474 6.565l-.018 7.906c-.011 4.16-2.388 6.544-8.507 6.529-6.12-.015-8.485-2.408-8.475-6.568l.018-7.906zM3.346 48.327c-.009 2.9.997 4.25 4.143 4.258 3.83.012 5.125-1.334 5.13-4.235l.025-10.088s-1.528-2.004-5.6-2.012c-2.82-.007-3.672 1.338-3.68 4.237l-.018 7.84zm9.262 4.68c-.12.202-1.413 1.832-5.688 1.826C1.879 54.82-.01 52.444 0 48.32l.02-7.841c.01-4.126 1.628-6.49 5.942-6.479 4.354.012 6.688 1.978 6.688 1.978l.004-1.635s.767-.203 1.653-.203c.887.004 1.693.21 1.693.21l-.053 22.175c-.01 4.127-2.354 6.49-8.686 6.475-3.991-.012-6.446-.958-6.446-.958s-.203-.487-.198-1.14c0-.698.202-1.146.202-1.146s2.579.986 6.45.997c4.068.007 5.324-1.335 5.331-4.236l.008-3.51zM28.475 36.8s2.486-2.811 7.366-2.8c0 0 .161.498.159 1.204a4.091 4.091 0 0 1-.168 1.16c-5.164-.012-7.364 3.756-7.364 3.756l-.035 14.671s-.87.209-1.697.209c-.912-.003-1.736-.215-1.736-.215l.05-20.48s.823-.208 1.736-.203a7.978 7.978 0 0 1 1.695.211l-.006 2.486zM49.896 45.368c-3.414.365-4.516 1.515-4.52 3.451v.617c-.007 2.222.803 3.299 3.445 3.303 4.19.012 5.819-2.003 5.819-2.003l.015-5.932-4.759.564zm4.739 7.672s-2.446 1.971-7.04 1.96c-4.062-.008-5.602-2.03-5.595-5.575v-.618c.01-3.292 2.088-5.058 7.332-5.622l5.326-.563.008-2.305c.006-2.724-1.127-4.041-4.583-4.049-3.377-.008-4.477 1.265-4.482 3.942l-.002.495s-.774.202-1.586.202c-.854-.003-1.625-.211-1.625-.211V40.2c.011-3.954 1.805-6.215 7.698-6.2 5.815.014 7.923 2.285 7.914 6.323l-.036 14.373s-.813.203-1.668.203c-.892-.005-1.665-.212-1.665-.212l.004-1.648zM100.898 79.367c-3.41.36-4.517 1.515-4.52 3.448v.619c-.006 2.227.803 3.297 3.446 3.305 4.188.012 5.82-2.002 5.82-2.002l.014-5.936-4.76.566zm4.74 7.67s-2.447 1.975-7.04 1.963c-4.063-.011-5.607-2.035-5.598-5.576v-.619c.01-3.297 2.09-5.056 7.336-5.625l5.325-.56.005-2.308c.006-2.72-1.128-4.036-4.583-4.045-3.374-.013-4.475 1.265-4.478 3.94l-.003.496s-.778.204-1.586.204a7.221 7.221 0 0 1-1.623-.212l.002-.495c.01-3.953 1.8-6.217 7.695-6.2 5.812.013 7.922 2.285 7.91 6.32l-.034 14.374s-.812.203-1.665.203c-.897-.003-1.667-.214-1.667-.214l.003-1.646zM45.477 106.805s2.484-2.818 7.361-2.805c0 0 .164.5.162 1.206 0 .664-.168 1.161-.168 1.161-5.164-.015-7.362 3.753-7.362 3.753l-.035 14.676s-.87.208-1.698.204c-.908-.005-1.737-.213-1.737-.213l.048-20.48s.831-.208 1.74-.203c.865 0 1.694.21 1.694.21l-.005 2.491zM62.94 124.798s-.748.206-1.453.202c-.781 0-1.487-.207-1.487-.207l.042-20.355s.707-.199 1.487-.199c.744.004 1.451.208 1.451.208l-.04 20.351zm.05-24.263s-.744.203-1.452.203c-.78 0-1.488-.21-1.488-.21l.01-4.322s.708-.207 1.488-.206a5.75 5.75 0 0 1 1.452.213l-.01 4.322zM79.898 116.37c-3.418.361-4.517 1.512-4.522 3.448l-.003.619c-.003 2.224.806 3.294 3.446 3.303 4.19.012 5.823-2.004 5.823-2.004l.015-5.932-4.759.567zm4.739 7.67s-2.445 1.971-7.04 1.96c-4.067-.008-5.606-2.033-5.597-5.574v-.616c.008-3.295 2.086-5.063 7.333-5.625l5.33-.565.005-2.306c.01-2.718-1.129-4.04-4.587-4.048-3.375-.009-4.478 1.266-4.483 3.942v.495s-.774.208-1.584.203c-.855 0-1.628-.212-1.628-.212l.002-.495c.01-3.954 1.805-6.216 7.699-6.199 5.818.014 7.926 2.284 7.913 6.323l-.032 14.374s-.814.202-1.668.202c-.897-.005-1.666-.212-1.666-.212l.003-1.648z" fill="#0F2E45" fill-rule="nonzero"/></g></svg>